<svg width="18" height="24" viewBox="0 0 18 24" fill="none" xmlns="http://www.w3.org/2000/svg">
<path d="M3.444 5.20761C3.3913 5.14651 3.32735 5.09678 3.25584 5.06129C3.18432 5.02581 3.10667 5.00528 3.02739 5.00089C2.94811 4.9965 2.86876 5.00835 2.79396 5.03573C2.71916 5.06312 2.65039 5.10551 2.59163 5.16044C2.53287 5.21537 2.48529 5.28175 2.45166 5.35573C2.41802 5.42971 2.39899 5.50982 2.39568 5.59143C2.39237 5.67303 2.40483 5.7545 2.43235 5.83111C2.45987 5.90772 2.50189 5.97795 2.55599 6.03773L3.999 7.67097C1.27499 9.39062 0.103493 12.0415 0.0517429 12.1618C0.0176277 12.2407 0 12.3262 0 12.4125C0 12.4989 0.0176277 12.5843 0.0517429 12.6633C0.0779929 12.7242 0.713243 14.1731 2.12549 15.6258C4.00725 17.5607 6.384 18.5837 9 18.5837C10.3445 18.5915 11.6753 18.3068 12.9053 17.7481L14.5553 19.6159C14.6079 19.677 14.6719 19.7268 14.7434 19.7622C14.8149 19.7977 14.8926 19.8182 14.9719 19.8226C15.0511 19.827 15.1305 19.8152 15.2053 19.7878C15.2801 19.7604 15.3489 19.718 15.4076 19.6631C15.4664 19.6082 15.514 19.5418 15.5476 19.4678C15.5812 19.3938 15.6003 19.3137 15.6036 19.2321C15.6069 19.1505 15.5944 19.069 15.5669 18.9924C15.5394 18.9158 15.4974 18.8456 15.4433 18.7858L3.444 5.20761ZM10.119 14.5958C9.64837 14.8505 9.10884 14.9372 8.58512 14.8423C8.06141 14.7474 7.58317 14.4762 7.22551 14.0714C6.86785 13.6666 6.65102 13.151 6.60908 12.6057C6.56713 12.0604 6.70243 11.5162 6.99375 11.0586L10.119 14.5958ZM17.9483 12.6633C17.9168 12.7358 17.157 14.4662 15.4463 16.0424C15.3284 16.1512 15.1734 16.2077 15.0152 16.1994C14.857 16.1912 14.7084 16.1189 14.6018 15.9984L7.005 7.40249C6.93232 7.32046 6.8825 7.21979 6.86077 7.11107C6.83904 7.00236 6.84621 6.88964 6.88153 6.78476C6.91684 6.67989 6.97899 6.58676 7.06144 6.51516C7.14388 6.44357 7.24357 6.39617 7.35 6.37795C7.89537 6.28532 8.44724 6.23914 9 6.23986C11.616 6.23986 13.9928 7.26285 15.8745 9.19851C17.2868 10.6512 17.922 12.1009 17.9483 12.1618C17.9824 12.2407 18 12.3262 18 12.4125C18 12.4989 17.9824 12.5843 17.9483 12.6633Z" fill="#929191"/>
</svg>
