<svg width="18" height="24" viewBox="0 0 18 24" fill="none" xmlns="http://www.w3.org/2000/svg">
<path d="M17.9483 11.757C17.922 11.6978 17.2868 10.2885 15.8745 8.87625C13.9928 6.9945 11.616 6 9 6C6.384 6 4.00725 6.9945 2.12549 8.87625C0.713243 10.2885 0.0749929 11.7 0.0517429 11.757C0.0176277 11.8337 0 11.9168 0 12.0008C0 12.0847 0.0176277 12.1678 0.0517429 12.2445C0.0779929 12.3038 0.713243 13.7123 2.12549 15.1245C4.00725 17.0055 6.384 18 9 18C11.616 18 13.9928 17.0055 15.8745 15.1245C17.2868 13.7123 17.922 12.3038 17.9483 12.2445C17.9824 12.1678 18 12.0847 18 12.0008C18 11.9168 17.9824 11.8337 17.9483 11.757ZM9 15C8.40666 15 7.82664 14.8241 7.33329 14.4944C6.83994 14.1648 6.45542 13.6962 6.22836 13.1481C6.0013 12.5999 5.94189 11.9967 6.05764 11.4147C6.1734 10.8328 6.45912 10.2982 6.87868 9.87868C7.29824 9.45913 7.83278 9.1734 8.41473 9.05765C8.99667 8.94189 9.59987 9.0013 10.1481 9.22836C10.6962 9.45543 11.1648 9.83995 11.4944 10.3333C11.8241 10.8266 12 11.4067 12 12C12 12.7957 11.6839 13.5587 11.1213 14.1213C10.5587 14.6839 9.79565 15 9 15Z" fill="#929191"/>
</svg>
